<svg xmlns="http://www.w3.org/2000/svg" width="46" height="398" viewBox="0 0 46 398">
<g transform="translate(23.00,52.00)" fill="none" stroke="#0d0d0f" stroke-width="2.0" stroke-linecap="round" stroke-linejoin="round"><path d="M0,-15 Q7.5,0 0,15 Q-7.5,0 0,-15 Z" transform="rotate(0)"/><path d="M0,-15 Q7.5,0 0,15 Q-7.5,0 0,-15 Z" transform="rotate(120)"/><path d="M0,-15 Q7.5,0 0,15 Q-7.5,0 0,-15 Z" transform="rotate(240)"/></g>
<g transform="translate(23.00,150.00)" fill="none" stroke="#0d0d0f" stroke-width="2.0" stroke-linecap="round" stroke-linejoin="round"><path d="M0,-16 L13.8,12 L-13.8,12 Z" transform="rotate(0)"/><path d="M0,-16 L13.8,12 L-13.8,12 Z" transform="rotate(120)"/><path d="M0,-16 L13.8,12 L-13.8,12 Z" transform="rotate(240)"/></g>
<g transform="translate(23.00,248.00)" fill="none" stroke="#0d0d0f" stroke-width="2.0" stroke-linecap="round" stroke-linejoin="round"><circle r="2.2"/><line x1="0" y1="0" x2="16.00" y2="0.00"/><line x1="16.00" y1="-4.00" x2="16.00" y2="4.00"/><line x1="0" y1="0" x2="11.31" y2="11.31"/><line x1="14.14" y1="8.49" x2="8.49" y2="14.14"/><line x1="0" y1="0" x2="0.00" y2="16.00"/><line x1="4.00" y1="16.00" x2="-4.00" y2="16.00"/><line x1="0" y1="0" x2="-11.31" y2="11.31"/><line x1="-8.49" y1="14.14" x2="-14.14" y2="8.49"/><line x1="0" y1="0" x2="-16.00" y2="0.00"/><line x1="-16.00" y1="4.00" x2="-16.00" y2="-4.00"/><line x1="0" y1="0" x2="-11.31" y2="-11.31"/><line x1="-14.14" y1="-8.49" x2="-8.49" y2="-14.14"/><line x1="0" y1="0" x2="-0.00" y2="-16.00"/><line x1="-4.00" y1="-16.00" x2="4.00" y2="-16.00"/><line x1="0" y1="0" x2="11.31" y2="-11.31"/><line x1="8.49" y1="-14.14" x2="14.14" y2="-8.49"/></g>
<g transform="translate(23.00,346.00)" fill="none" stroke="#0d0d0f" stroke-width="2.0" stroke-linecap="round" stroke-linejoin="round"><circle r="1.8"/><line x1="0" y1="0" x2="16.00" y2="0.00"/><line x1="8.80" y1="-3.40" x2="8.80" y2="3.40"/><line x1="16.00" y1="0.00" x2="20.20" y2="4.20"/><line x1="16.00" y1="0.00" x2="20.20" y2="-4.20"/><line x1="0" y1="0" x2="11.31" y2="11.31"/><line x1="8.63" y1="3.82" x2="3.82" y2="8.63"/><line x1="11.31" y1="11.31" x2="11.31" y2="17.25"/><line x1="11.31" y1="11.31" x2="17.25" y2="11.31"/><line x1="0" y1="0" x2="0.00" y2="16.00"/><line x1="3.40" y1="8.80" x2="-3.40" y2="8.80"/><line x1="0.00" y1="16.00" x2="-4.20" y2="20.20"/><line x1="0.00" y1="16.00" x2="4.20" y2="20.20"/><line x1="0" y1="0" x2="-11.31" y2="11.31"/><line x1="-3.82" y1="8.63" x2="-8.63" y2="3.82"/><line x1="-11.31" y1="11.31" x2="-17.25" y2="11.31"/><line x1="-11.31" y1="11.31" x2="-11.31" y2="17.25"/><line x1="0" y1="0" x2="-16.00" y2="0.00"/><line x1="-8.80" y1="3.40" x2="-8.80" y2="-3.40"/><line x1="-16.00" y1="0.00" x2="-20.20" y2="-4.20"/><line x1="-16.00" y1="0.00" x2="-20.20" y2="4.20"/><line x1="0" y1="0" x2="-11.31" y2="-11.31"/><line x1="-8.63" y1="-3.82" x2="-3.82" y2="-8.63"/><line x1="-11.31" y1="-11.31" x2="-11.31" y2="-17.25"/><line x1="-11.31" y1="-11.31" x2="-17.25" y2="-11.31"/><line x1="0" y1="0" x2="-0.00" y2="-16.00"/><line x1="-3.40" y1="-8.80" x2="3.40" y2="-8.80"/><line x1="-0.00" y1="-16.00" x2="4.20" y2="-20.20"/><line x1="-0.00" y1="-16.00" x2="-4.20" y2="-20.20"/><line x1="0" y1="0" x2="11.31" y2="-11.31"/><line x1="3.82" y1="-8.63" x2="8.63" y2="-3.82"/><line x1="11.31" y1="-11.31" x2="17.25" y2="-11.31"/><line x1="11.31" y1="-11.31" x2="11.31" y2="-17.25"/></g>
</svg>