<?xml version="1.0" encoding="UTF-8" standalone="no"?>
<svg xmlns="http://www.w3.org/2000/svg"
   xmlns:dc="http://purl.org/dc/elements/1.1/"
   xmlns:cc="http://creativecommons.org/ns#"
   xmlns:rdf="http://www.w3.org/1999/02/22-rdf-syntax-ns#"
   xmlns:sodipodi="http://sodipodi.sourceforge.net/DTD/sodipodi-0.dtd"
   xmlns:inkscape="http://www.inkscape.org/namespaces/inkscape"
   width="624" height="600" viewBox="0 0 624 600"
   inkscape:version="0.48.4 r9939"
   sodipodi:docname="triquetra.svg">
  <metadata>
    <rdf:RDF>
      <cc:Work rdf:about="">
        <dc:format>image/svg+xml</dc:format>
        <dc:type rdf:resource="http://purl.org/dc/dcmitype/StillImage" />
        <dc:title>Decorative/ornamental Trinitarian symbolic motif: Quasi-Celtic knotwork (interlaced ribbons) of Triquetra inside Triangle interlaced with Circle</dc:title>
      </cc:Work>
    </rdf:RDF>
  </metadata>
  <title>Decorative/ornamental Trinitarian symbolic motif: Quasi-Celtic knotwork (interlaced ribbons) of Triquetra inside Triangle interlaced with Circle</title>
  <g transform="translate(-0.054445,0)"
     id="g4047">
    <path id="path3833"
       d="m 258.38141,238.20401 c 11.2908,-26.91489 30.00641,-50.67424 53.61856,-67.84089 21.47433,15.65609 38.98662,36.72075 50.38625,60.72973 -6.54793,-2.40665 -13.15344,-4.7429 -19.98937,-6.21507 -1.35694,-0.40324 -3.11074,-0.33282 -3.78922,-1.81781 -7.34158,-11.51481 -16.29614,-22.01835 -26.60766,-30.97933 -29.27674,25.38516 -47.46108,63.07881 -49.06767,101.79658 -0.16635,3.07233 0.0319,6.16386 -0.32645,9.2298 -5.66459,1.66415 -11.1564,3.82759 -16.6546,5.95903 -1.18411,-24.1562 3.05314,-48.56201 12.43016,-70.86204 z"/>
    <path id="path3841"
       d="m 289.89838,231.86732 c 26.14682,-4.8197 53.82341,-0.90248 77.64037,10.91319 20.89186,10.22192 38.80738,26.39645 51.14152,46.11697 11.70685,18.626 18.47877,40.40756 19.05485,62.41952 -5.39579,-5.77343 -11.0604,-11.30362 -17.19226,-16.29618 -0.90889,-0.79366 -2.07381,-1.53614 -2.17624,-2.8547 -4.83892,-22.16557 -16.88501,-42.69899 -33.89805,-57.71498 -19.64371,-17.72993 -46.01453,-27.72141 -72.4686,-27.6382 -10.64434,-0.0768 -21.25671,1.61299 -31.47219,4.53809 2.55387,-6.74634 5.76704,-13.2366 9.3706,-19.48371 z"/>
    <path id="path3843"
       d="m 208.62886,283.86655 c 9.74183,-13.8767 22.18476,-25.94839 36.65033,-34.83256 -2.26585,7.77683 -4.38447,15.61766 -5.61341,23.63133 0,2.07383 -1.86259,3.21317 -3.16192,4.5381 -18.90125,18.02434 -30.89613,43.07025 -33.01475,69.11465 -2.57309,27.83018 6.24705,56.50527 23.95135,78.12681 3.04035,3.866 6.59271,7.28397 9.95949,10.86196 -7.11117,0.9537 -14.27354,1.66419 -21.45511,1.50418 -1.74741,-1.31216 -2.84192,-3.29638 -4.22448,-4.94774 -16.94901,-22.13359 -26.06998,-50.0662 -25.55794,-77.92839 0.23032,-24.9115 8.20569,-49.64376 22.46644,-70.06834 z"/>
    <path id="path3847"
       d="m 357.06084,266.00861 c 7.02795,3.47558 13.76787,7.73843 19.58609,13.0126 2.7331,18.10115 1.85622,36.70156 -1.8178,54.62349 -6.11907,30.19205 -21.3463,58.39347 -42.93581,80.33503 -4.77491,-3.05311 -9.26822,-6.52869 -13.56307,-10.22188 5.31898,-5.77982 10.74036,-11.50204 15.27845,-17.94115 16.48819,-22.5432 26.21083,-49.99577 27.41415,-77.90278 0.73609,-14.07511 -0.61445,-28.22063 -3.96201,-41.90531 z"/>
    <path id="path3853"
       d="m 233.02828,324.89495 c 34.11565,-19.32367 75.40011,-25.40433 113.65703,-16.87862 1.98422,0.44806 4.01321,0.7937 5.90785,1.58738 -0.56329,5.59422 -1.08813,11.20121 -2.24024,16.7122 -21.56394,-5.80544 -44.43362,-6.74634 -66.34956,-2.38105 -24.98829,4.97973 -48.67724,16.56498 -67.71288,33.5332 -1.51058,1.38896 -3.03393,2.7523 -4.5637,4.11565 -0.23671,-7.78964 -0.21752,-15.67528 1.42737,-23.32412 6.05503,-5.19736 12.96137,-9.38341 19.87413,-13.36464 z"/>
    <path id="path3855"
       d="m 385.39668,321.94424 c 22.54962,11.39962 42.25095,28.32946 57.11976,48.74126 16.59697,22.67123 27.0237,49.77812 29.9936,77.71075 -24.23938,10.84917 -51.2823,15.48326 -77.74915,13.33904 6.20225,-5.08215 12.0909,-10.53555 17.51228,-16.43697 14.06872,-0.78089 28.23985,-2.94434 41.50207,-7.84725 -4.24365,-20.74463 -12.90378,-40.59315 -25.53874,-57.60618 -12.18053,-16.4306 -27.8302,-30.33928 -45.75212,-40.22835 0.72327,-5.92064 2.27223,-11.72607 2.9123,-17.6723 z"/>
    <path id="path3859"
       d="m 251.59667,343.8346 c 5.13335,-2.45147 10.31151,-4.89013 15.77772,-6.50951 6.43906,24.59146 19.45167,47.46112 37.49523,65.38304 17.14103,17.37787 38.83297,30.14083 62.24667,37.00877 -6.5863,4.3589 -13.71665,7.93046 -21.16704,10.55476 -22.98487,-9.59464 -43.85753,-24.34824 -60.20491,-43.16626 -15.9505,-18.16515 -27.74058,-39.9659 -34.14767,-63.2708 z"/>
    <path id="path3865"
       d="m 173.57227,382.58436 c 1.67059,-2.77152 3.36037,-5.543 5.32539,-8.12248 1.12652,7.02795 2.53466,14.02394 4.71729,20.80864 0.32643,1.22254 1.13294,2.61149 0.18577,3.77644 -6.38787,12.05248 -10.79154,25.09069 -13.57587,38.4297 25.67957,9.06979 54.02823,10.12591 80.47589,3.82122 14.1711,-3.37955 27.75977,-9.04418 40.27953,-16.46898 4.39726,3.98123 9.00577,7.71925 13.56947,11.50845 -22.93368,14.86239 -49.66935,23.81056 -76.9555,25.53235 -25.92279,1.8882 -52.16561,-3.00191 -75.99539,-13.26864 2.14424,-23.2857 9.99149,-45.96335 21.97359,-66.0167 z"/>
    <path id="path3867"
       d="m 381.22983,439.85774 c 18.30597,-15.03523 31.4658,-36.1447 36.89996,-59.19998 4.12207,5.05656 7.78325,10.49074 11.15642,16.07853 0.49925,0.8833 1.29933,1.901 0.71046,2.9635 -7.04713,18.86286 -18.64519,36.0423 -33.65481,49.49655 -17.74272,16.05933 -40.15795,26.90209 -63.77645,30.79371 -26.99172,4.48688 -55.4876,-0.0384 -79.58619,-13.05742 8.4937,-1.99698 16.85301,-4.52528 25.05229,-7.50799 10.59954,3.15553 21.58314,5.32537 32.68832,5.19096 25.47475,0.59526 50.89189,-8.59613 70.51,-24.75786 z"/>
  </g>
  <g id="g3166">
    <path id="path3819"
       d="M 291.60738,44.243928 C 298.4433,32.524276 305.11284,20.714996 311.99997,9.027345 379.24561,125.27666 446.28005,241.65398 513.46168,357.94171 c 0.8897,1.27372 0.50563,2.87391 0.52484,4.32686 -0.56965,12.94219 -2.0802,25.90358 -5.23575,38.48736 C 443.0989,287.22049 377.64544,173.57625 311.99997,60.040831 c -10.03628,17.128243 -19.80373,34.422912 -29.85921,51.538359 -11.086,1.36334 -22.04397,3.60358 -32.89314,6.25347 13.9535,-24.623447 28.28463,-49.035678 42.35976,-73.588732 z"/>
    <path id="path3823"
       d="m 195.89786,148.8696 c 33.16838,-18.76042 70.95164,-29.38557 109.06134,-30.30726 10.50995,-0.42885 21.0391,0.12799 31.5106,1.06892 5.479,9.3514 10.90039,18.7412 16.27057,28.15662 -24.34182,-4.58929 -49.45815,-5.18456 -73.93436,-1.26094 -32.00345,5.01815 -62.75878,17.6403 -89.09121,36.49034 -28.11821,20.08536 -51.28231,47.12187 -66.57355,78.12681 -12.31494,24.67465 -19.5605,51.83918 -21.37831,79.34295 -0.33282,5.47259 -0.48646,10.95798 -0.64007,16.43057 -7.187961,12.66695 -14.427161,25.3339 -21.871146,37.85368 -4.03883,-22.47923 -4.442095,-45.56651 -1.811405,-68.23777 3.821217,-32.41948 14.523188,-64.00048 31.164951,-92.08032 20.96867,-35.49181 51.37834,-65.33182 87.29259,-85.5836 z"/>
    <path id="path3825"
       d="m 393.61517,133.0727 c 11.84767,3.98763 23.13848,9.53062 34.07087,15.57288 44.26717,24.78987 80.10463,64.25653 100.51,110.71271 15.82887,35.76064 22.44722,75.51534 19.24043,114.46991 -3.35384,42.90382 -18.81791,84.80276 -44.22872,119.5393 -10.83634,0.0256 -21.66632,0.0512 -32.50269,-0.0119 18.95884,-21.75594 33.48201,-47.37148 42.18055,-74.89447 14.85607,-46.62899 12.81417,-98.41058 -5.84384,-143.66985 -17.39067,-42.6542 -49.2405,-79.20213 -89.0784,-102.30862 -1.18411,-0.69127 -2.51546,-1.31854 -3.14273,-2.61148 -7.06636,-12.27012 -14.17751,-24.50824 -21.20547,-36.79756 z"/>
    <path id="path3831"
       d="m 217.25698,176.02772 c 11.57245,-6.02945 23.63135,-11.27161 36.2151,-14.77919 -65.42145,113.65065 -131.14371,227.13485 -196.577977,340.78549 19.874153,0.0896 39.741886,-0.0189 59.609617,0.0512 6.73355,8.98655 14.17753,17.40985 22.00559,25.45553 -41.937324,0.10258 -83.874643,0.0642 -125.811964,0.0189 C 37.730466,483.95818 62.936367,440.4655 88.059071,396.91519 130.0412,324.12657 172.06811,251.36991 214.06944,178.5941 c 0.64647,-1.28655 1.97142,-1.93301 3.18754,-2.56668 z"/>
    <path id="path3873"
       d="m 548.39655,418.58185 c 21.04551,36.2791 42.00148,72.6158 62.9061,108.97812 -134.13289,0.10237 -268.27212,-0.007 -402.41137,0.0447 -1.10731,0.0959 -2.17624,-0.23695 -3.07234,-0.87688 -11.47003,-7.11759 -22.28078,-15.33608 -32.07387,-24.64267 131.11813,-0.0703 262.23626,0.0189 393.35437,-0.0512 -9.65852,-17.04502 -19.58615,-33.93645 -29.31511,-50.9303 -0.64006,-0.85768 0.18482,-1.84979 0.40957,-2.69468 4.09001,-9.69062 7.43133,-19.68213 10.20265,-29.8272 z"/>
    <path id="path3875"
       d="m 96.277533,451.10376 c 5.203797,-9.51145 10.810777,-18.80524 16.174567,-28.22706 8.81374,25.07789 22.05037,48.65164 39.43463,68.80101 30.7041,36.08069 73.92157,61.32499 120.51858,70.03631 48.9653,9.46664 101.23971,0.85771 144.41234,-24.18179 1.21615,-0.69766 2.44508,-1.60655 3.94285,-1.39534 14.1199,0.0831 28.25262,-0.10876 42.37254,0.10258 -22.29999,18.64519 -48.10118,33.13635 -75.66895,42.39174 -36.21508,12.2061 -75.41291,15.45127 -113.13859,9.3194 C 229.82154,580.91626 187.54498,560.63249 154.13339,530.41482 129.56754,508.42847 109.7574,481.18714 96.277533,451.1039 z"/>
  </g>
</svg>